<svg width="12" height="7" viewBox="0 0 12 7" fill="none" xmlns="http://www.w3.org/2000/svg">
<path d="M1.02055 0.646447C0.825283 0.451184 0.508701 0.451184 0.313439 0.646447C0.118177 0.841709 0.118177 1.15829 0.313439 1.35355L1.02055 0.646447ZM6.00033 6.33333L5.64677 6.68689C5.84203 6.88215 6.15862 6.88215 6.35388 6.68689L6.00033 6.33333ZM11.6872 1.35355C11.8825 1.15829 11.8825 0.841709 11.6872 0.646447C11.4919 0.451184 11.1754 0.451184 10.9801 0.646447L11.6872 1.35355ZM0.313439 1.35355L5.64677 6.68689L6.35388 5.97978L1.02055 0.646447L0.313439 1.35355ZM6.35388 6.68689L11.6872 1.35355L10.9801 0.646447L5.64677 5.97978L6.35388 6.68689Z" fill="#629C42"/>
</svg>
