<svg width="20" height="14" viewBox="0 0 20 14" fill="none" xmlns="http://www.w3.org/2000/svg">
<path d="M4 9.25C3.58579 9.25 3.25 9.58579 3.25 10C3.25 10.4142 3.58579 10.75 4 10.75V9.25ZM8 10.75C8.41421 10.75 8.75 10.4142 8.75 10C8.75 9.58579 8.41421 9.25 8 9.25V10.75ZM3 1.75H17V0.25H3V1.75ZM17 12.25H3V13.75H17V12.25ZM18.25 3V5H19.75V3H18.25ZM18.25 5V11H19.75V5H18.25ZM1.75 11V5H0.25V11H1.75ZM1.75 5V3H0.25V5H1.75ZM3 12.25C2.30964 12.25 1.75 11.6904 1.75 11H0.25C0.25 12.5188 1.48122 13.75 3 13.75V12.25ZM17 13.75C18.5188 13.75 19.75 12.5188 19.75 11H18.25C18.25 11.6904 17.6904 12.25 17 12.25V13.75ZM17 1.75C17.6904 1.75 18.25 2.30964 18.25 3H19.75C19.75 1.48122 18.5188 0.25 17 0.25V1.75ZM3 0.25C1.48122 0.25 0.25 1.48122 0.25 3H1.75C1.75 2.30964 2.30964 1.75 3 1.75V0.25ZM19 4.25H1V5.75H19V4.25ZM4 10.75H8V9.25H4V10.75Z" fill="#585858"/>
</svg>
