<svg width="24" height="24" viewBox="0 0 24 24" fill="none" xmlns="http://www.w3.org/2000/svg">
<path d="M19.1532 9.83391L18.4058 9.89619L19.1532 9.83391ZM19.8199 17.8339L20.5673 17.7716L19.8199 17.8339ZM4.18087 17.8339L4.92828 17.8962L4.18087 17.8339ZM4.84754 9.83391L4.10013 9.77163L4.84754 9.83391ZM16.0004 7H15.2504V7L16.0004 7ZM14.8288 4.17157L14.2985 4.7019L14.8288 4.17157ZM9.17194 4.17157L9.70227 4.7019L9.17194 4.17157ZM8.00037 7H7.25037V7L8.00037 7ZM15.2504 12C15.2504 12.4142 15.5862 12.75 16.0004 12.75C16.4146 12.75 16.7504 12.4142 16.7504 12H15.2504ZM7.25037 12C7.25037 12.4142 7.58615 12.75 8.00037 12.75C8.41458 12.75 8.75037 12.4142 8.75037 12H7.25037ZM18.4058 9.89619L19.0725 17.8962L20.5673 17.7716L19.9006 9.77163L18.4058 9.89619ZM17.8268 19.25H6.17397V20.75H17.8268V19.25ZM4.92828 17.8962L5.59495 9.89619L4.10013 9.77163L3.43347 17.7716L4.92828 17.8962ZM6.17397 19.25C5.44267 19.25 4.86755 18.625 4.92828 17.8962L3.43347 17.7716C3.29986 19.3749 4.56511 20.75 6.17397 20.75V19.25ZM19.0725 17.8962C19.1332 18.625 18.5581 19.25 17.8268 19.25V20.75C19.4356 20.75 20.7009 19.3749 20.5673 17.7716L19.0725 17.8962ZM17.1601 8.75C17.8102 8.75 18.3518 9.24833 18.4058 9.89619L19.9006 9.77163C19.7818 8.34632 18.5903 7.25 17.1601 7.25V8.75ZM6.84063 7.25C5.41039 7.25 4.21891 8.34632 4.10013 9.77163L5.59495 9.89619C5.64894 9.24833 6.19052 8.75 6.84063 8.75V7.25ZM16.0004 8.75H17.1601V7.25H16.0004V8.75ZM6.84063 8.75H8.00037V7.25H6.84063V8.75ZM8.00037 8.75H16.0004V7.25H8.00037V8.75ZM16.7504 7C16.7504 5.74022 16.2499 4.53204 15.3591 3.64124L14.2985 4.7019C14.908 5.3114 15.2504 6.13805 15.2504 7H16.7504ZM15.3591 3.64124C14.4683 2.75045 13.2601 2.25 12.0004 2.25V3.75C12.8623 3.75 13.689 4.09241 14.2985 4.7019L15.3591 3.64124ZM12.0004 2.25C10.7406 2.25 9.53241 2.75044 8.64161 3.64124L9.70227 4.7019C10.3118 4.09241 11.1384 3.75 12.0004 3.75V2.25ZM8.64161 3.64124C7.75081 4.53204 7.25037 5.74022 7.25037 7H8.75037C8.75037 6.13805 9.09278 5.3114 9.70227 4.7019L8.64161 3.64124ZM15.2504 7L15.2504 8L16.7504 8L16.7504 7L15.2504 7ZM15.2504 8L15.2504 12H16.7504L16.7504 8L15.2504 8ZM7.25037 7L7.25037 8L8.75037 8L8.75037 7L7.25037 7ZM7.25037 8L7.25037 12H8.75037L8.75037 8H7.25037Z" fill="#585858"/>
</svg>
