<svg width="16" height="10" viewBox="0 0 16 10" fill="none" xmlns="http://www.w3.org/2000/svg">
<path d="M3.99951 0.25C3.5853 0.25 3.24951 0.585786 3.24951 1C3.24951 1.41421 3.5853 1.75 3.99951 1.75V0.25ZM14.9995 1.75C15.4137 1.75 15.7495 1.41421 15.7495 1C15.7495 0.585786 15.4137 0.25 14.9995 0.25V1.75ZM3.99951 4.25C3.5853 4.25 3.24951 4.58579 3.24951 5C3.24951 5.41421 3.5853 5.75 3.99951 5.75V4.25ZM14.9995 5.75C15.4137 5.75 15.7495 5.41421 15.7495 5C15.7495 4.58579 15.4137 4.25 14.9995 4.25V5.75ZM3.99951 8.25C3.5853 8.25 3.24951 8.58579 3.24951 9C3.24951 9.41421 3.5853 9.75 3.99951 9.75V8.25ZM14.9995 9.75C15.4137 9.75 15.7495 9.41421 15.7495 9C15.7495 8.58579 15.4137 8.25 14.9995 8.25V9.75ZM1.74951 1C1.74951 0.585786 1.41373 0.25 0.999512 0.25C0.585298 0.25 0.249512 0.585786 0.249512 1H1.74951ZM0.249512 1.00999C0.249512 1.42421 0.585298 1.75999 0.999512 1.75999C1.41373 1.75999 1.74951 1.42421 1.74951 1.00999H0.249512ZM1.74951 5C1.74951 4.58579 1.41373 4.25 0.999512 4.25C0.585298 4.25 0.249512 4.58579 0.249512 5H1.74951ZM0.249512 5.00999C0.249512 5.42421 0.585298 5.75999 0.999512 5.75999C1.41373 5.75999 1.74951 5.42421 1.74951 5.00999H0.249512ZM1.74951 9C1.74951 8.58579 1.41373 8.25 0.999512 8.25C0.585298 8.25 0.249512 8.58579 0.249512 9H1.74951ZM0.249512 9.00999C0.249512 9.42421 0.585298 9.75999 0.999512 9.75999C1.41373 9.75999 1.74951 9.42421 1.74951 9.00999H0.249512ZM3.99951 1.75H14.9995V0.25H3.99951V1.75ZM3.99951 5.75H14.9995V4.25H3.99951V5.75ZM3.99951 9.75H14.9995V8.25H3.99951V9.75ZM0.249512 1V1.00999H1.74951V1H0.249512ZM0.249512 5V5.00999H1.74951V5H0.249512ZM0.249512 9V9.00999H1.74951V9H0.249512Z" fill="#000000"/>
</svg>
