<svg width="20" height="18" viewBox="0 0 20 18" fill="none" xmlns="http://www.w3.org/2000/svg">
<path d="M10 17L9.46012 17.5206C9.60147 17.6672 9.79636 17.75 10 17.75C10.2036 17.75 10.3985 17.6672 10.5399 17.5206L10 17ZM2.3314 9.04738L1.79152 9.56798H1.79152L2.3314 9.04738ZM17.6686 9.04738L17.1287 8.52678L17.6686 9.04738ZM8.75997 2.38071L8.22009 2.90131V2.90131L8.75997 2.38071ZM10 3.66667L9.46012 4.18727C9.60147 4.33386 9.79636 4.41667 10 4.41667C10.2036 4.41667 10.3985 4.33386 10.5399 4.18727L10 3.66667ZM11.24 2.38071L10.7001 1.86011L10.7001 1.86011L11.24 2.38071ZM10.5399 16.4794L2.87128 8.52678L1.79152 9.56798L9.46012 17.5206L10.5399 16.4794ZM17.1287 8.52678L9.46012 16.4794L10.5399 17.5206L18.2085 9.56798L17.1287 8.52678ZM8.22009 2.90131L9.46012 4.18727L10.5399 3.14606L9.29986 1.86011L8.22009 2.90131ZM10.5399 4.18727L11.7799 2.90131L10.7001 1.86011L9.46012 3.14606L10.5399 4.18727ZM14.4543 0.25C13.0408 0.25 11.691 0.832555 10.7001 1.86011L11.7799 2.90131C12.494 2.16076 13.4566 1.75 14.4543 1.75V0.25ZM18.25 5.71405C18.25 6.774 17.8437 7.78529 17.1287 8.52678L18.2085 9.56798C19.1984 8.54135 19.75 7.15458 19.75 5.71405H18.25ZM19.75 5.71405C19.75 2.72228 17.4045 0.25 14.4543 0.25V1.75C16.5251 1.75 18.25 3.49882 18.25 5.71405H19.75ZM5.54569 1.75C6.54338 1.75 7.50598 2.16076 8.22009 2.90131L9.29986 1.86011C8.309 0.832556 6.95917 0.25 5.54569 0.25V1.75ZM1.75 5.71405C1.75 3.49882 3.47486 1.75 5.54569 1.75V0.25C2.59548 0.25 0.25 2.72228 0.25 5.71405H1.75ZM2.87128 8.52678C2.15628 7.78529 1.75 6.774 1.75 5.71405H0.25C0.25 7.15458 0.801554 8.54135 1.79152 9.56798L2.87128 8.52678Z" fill="#585858"/>
</svg>
