<svg width="18" height="20" viewBox="0 0 18 20" fill="none" xmlns="http://www.w3.org/2000/svg">
<path d="M17 19V19.75C17.4142 19.75 17.75 19.4142 17.75 19H17ZM1 19H0.25C0.25 19.4142 0.585786 19.75 1 19.75L1 19ZM5 13.75H13V12.25H5V13.75ZM16.25 17V19H17.75V17H16.25ZM1.75 19V17H0.25V19H1.75ZM13 13.75C14.7949 13.75 16.25 15.2051 16.25 17H17.75C17.75 14.3766 15.6234 12.25 13 12.25V13.75ZM5 12.25C2.37665 12.25 0.25 14.3766 0.25 17H1.75C1.75 15.2051 3.20507 13.75 5 13.75V12.25ZM12.25 5C12.25 6.79493 10.7949 8.25 9 8.25V9.75C11.6234 9.75 13.75 7.62335 13.75 5H12.25ZM9 8.25C7.20507 8.25 5.75 6.79493 5.75 5H4.25C4.25 7.62335 6.37665 9.75 9 9.75V8.25ZM5.75 5C5.75 3.20507 7.20507 1.75 9 1.75V0.25C6.37665 0.25 4.25 2.37665 4.25 5H5.75ZM9 1.75C10.7949 1.75 12.25 3.20507 12.25 5H13.75C13.75 2.37665 11.6234 0.25 9 0.25V1.75ZM1 19.75H17V18.25H1V19.75Z" fill="#585858"/>
</svg>
