<svg width="18" height="19" viewBox="0 0 18 19" fill="none" xmlns="http://www.w3.org/2000/svg">
<path d="M16.1532 7.83391L15.4058 7.89619L16.1532 7.83391ZM16.8199 15.8339L17.5673 15.7716L16.8199 15.8339ZM1.18087 15.8339L1.92828 15.8962L1.18087 15.8339ZM1.84754 7.83391L1.10013 7.77163L1.84754 7.83391ZM13.0004 5H12.2504V5L13.0004 5ZM11.8288 2.17157L11.2985 2.7019L11.8288 2.17157ZM6.17194 2.17157L6.70227 2.7019L6.17194 2.17157ZM5.00037 5H4.25037V5L5.00037 5ZM12.2504 10C12.2504 10.4142 12.5862 10.75 13.0004 10.75C13.4146 10.75 13.7504 10.4142 13.7504 10H12.2504ZM4.25037 10C4.25037 10.4142 4.58615 10.75 5.00037 10.75C5.41458 10.75 5.75037 10.4142 5.75037 10H4.25037ZM15.4058 7.89619L16.0725 15.8962L17.5673 15.7716L16.9006 7.77163L15.4058 7.89619ZM14.8268 17.25H3.17397V18.75H14.8268V17.25ZM1.92828 15.8962L2.59495 7.89619L1.10013 7.77163L0.433465 15.7716L1.92828 15.8962ZM3.17397 17.25C2.44267 17.25 1.86755 16.625 1.92828 15.8962L0.433465 15.7716C0.299857 17.3749 1.56511 18.75 3.17397 18.75V17.25ZM16.0725 15.8962C16.1332 16.625 15.5581 17.25 14.8268 17.25V18.75C16.4356 18.75 17.7009 17.3749 17.5673 15.7716L16.0725 15.8962ZM14.1601 6.75C14.8102 6.75 15.3518 7.24833 15.4058 7.89619L16.9006 7.77163C16.7818 6.34632 15.5903 5.25 14.1601 5.25V6.75ZM3.84063 5.25C2.41039 5.25 1.21891 6.34632 1.10013 7.77163L2.59495 7.89619C2.64894 7.24833 3.19052 6.75 3.84063 6.75V5.25ZM13.0004 6.75H14.1601V5.25H13.0004V6.75ZM3.84063 6.75H5.00037V5.25H3.84063V6.75ZM5.00037 6.75H13.0004V5.25H5.00037V6.75ZM13.7504 5C13.7504 3.74022 13.2499 2.53204 12.3591 1.64124L11.2985 2.7019C11.908 3.3114 12.2504 4.13805 12.2504 5H13.7504ZM12.3591 1.64124C11.4683 0.750445 10.2601 0.25 9.00037 0.25V1.75C9.86232 1.75 10.689 2.09241 11.2985 2.7019L12.3591 1.64124ZM9.00037 0.25C7.74059 0.25 6.53241 0.750445 5.64161 1.64124L6.70227 2.7019C7.31176 2.09241 8.13841 1.75 9.00037 1.75V0.25ZM5.64161 1.64124C4.75081 2.53204 4.25037 3.74022 4.25037 5H5.75037C5.75037 4.13805 6.09278 3.3114 6.70227 2.7019L5.64161 1.64124ZM12.2504 5L12.2504 6L13.7504 6L13.7504 5L12.2504 5ZM12.2504 6L12.2504 10H13.7504L13.7504 6L12.2504 6ZM4.25037 5L4.25037 6L5.75037 6L5.75037 5L4.25037 5ZM4.25037 6L4.25037 10H5.75037L5.75037 6H4.25037Z" fill="#585858"/>
</svg>
