<svg width="32" height="32" viewBox="0 0 32 32" fill="none" xmlns="http://www.w3.org/2000/svg">
<path d="M10.666 9.66797C10.1137 9.66797 9.66602 10.1157 9.66602 10.668C9.66602 11.2203 10.1137 11.668 10.666 11.668V9.66797ZM25.3327 11.668C25.885 11.668 26.3327 11.2203 26.3327 10.668C26.3327 10.1157 25.885 9.66797 25.3327 9.66797V11.668ZM10.666 15.0013C10.1137 15.0013 9.66602 15.449 9.66602 16.0013C9.66602 16.5536 10.1137 17.0013 10.666 17.0013V15.0013ZM25.3327 17.0013C25.885 17.0013 26.3327 16.5536 26.3327 16.0013C26.3327 15.449 25.885 15.0013 25.3327 15.0013V17.0013ZM10.666 20.3346C10.1137 20.3346 9.66602 20.7824 9.66602 21.3346C9.66602 21.8869 10.1137 22.3346 10.666 22.3346V20.3346ZM25.3327 22.3346C25.885 22.3346 26.3327 21.8869 26.3327 21.3346C26.3327 20.7824 25.885 20.3346 25.3327 20.3346V22.3346ZM7.66602 10.668C7.66602 10.1157 7.2183 9.66797 6.66602 9.66797C6.11373 9.66797 5.66602 10.1157 5.66602 10.668H7.66602ZM5.66602 10.6813C5.66602 11.2336 6.11373 11.6813 6.66602 11.6813C7.2183 11.6813 7.66602 11.2336 7.66602 10.6813H5.66602ZM7.66602 16.0013C7.66602 15.449 7.2183 15.0013 6.66602 15.0013C6.11373 15.0013 5.66602 15.449 5.66602 16.0013H7.66602ZM5.66602 16.0146C5.66602 16.5669 6.11373 17.0146 6.66602 17.0146C7.2183 17.0146 7.66602 16.5669 7.66602 16.0146H5.66602ZM7.66602 21.3346C7.66602 20.7824 7.2183 20.3346 6.66602 20.3346C6.11373 20.3346 5.66602 20.7824 5.66602 21.3346H7.66602ZM5.66602 21.348C5.66602 21.9002 6.11373 22.348 6.66602 22.348C7.2183 22.348 7.66602 21.9002 7.66602 21.348H5.66602ZM10.666 11.668H25.3327V9.66797H10.666V11.668ZM10.666 17.0013H25.3327V15.0013H10.666V17.0013ZM10.666 22.3346H25.3327V20.3346H10.666V22.3346ZM5.66602 10.668V10.6813H7.66602V10.668H5.66602ZM5.66602 16.0013V16.0146H7.66602V16.0013H5.66602ZM5.66602 21.3346V21.348H7.66602V21.3346H5.66602Z" fill="white"/>
</svg>
