<svg width="22" height="16" viewBox="0 0 22 16" fill="none" xmlns="http://www.w3.org/2000/svg">
<path d="M20.5 5.75C20.9142 5.75 21.25 5.41421 21.25 5C21.25 4.58579 20.9142 4.25 20.5 4.25V5.75ZM20.5 11.75C20.9142 11.75 21.25 11.4142 21.25 11C21.25 10.5858 20.9142 10.25 20.5 10.25V11.75ZM13.75 8C13.75 7.58579 13.4142 7.25 13 7.25C12.5858 7.25 12.25 7.58579 12.25 8H13.75ZM12.25 8.00999C12.25 8.42421 12.5858 8.75999 13 8.75999C13.4142 8.75999 13.75 8.42421 13.75 8.00999H12.25ZM3.61111 1.75H18.3889V0.25H3.61111V1.75ZM18.3889 14.25H3.61111V15.75H18.3889V14.25ZM2.25 12.6667V3.33333H0.75V12.6667H2.25ZM3.61111 14.25C2.92825 14.25 2.25 13.6135 2.25 12.6667H0.75C0.75 14.2972 1.9621 15.75 3.61111 15.75V14.25ZM19.75 12.6667C19.75 13.6135 19.0718 14.25 18.3889 14.25V15.75C20.0379 15.75 21.25 14.2972 21.25 12.6667H19.75ZM18.3889 1.75C19.0718 1.75 19.75 2.3865 19.75 3.33333H21.25C21.25 1.70284 20.0379 0.25 18.3889 0.25V1.75ZM3.61111 0.25C1.96211 0.25 0.75 1.70284 0.75 3.33333H2.25C2.25 2.3865 2.92825 1.75 3.61111 1.75V0.25ZM13 5.75H20.5V4.25H13V5.75ZM20.5 10.25H13V11.75H20.5V10.25ZM13 10.25C11.7574 10.25 10.75 9.24264 10.75 8H9.25C9.25 10.0711 10.9289 11.75 13 11.75V10.25ZM13 4.25C10.9289 4.25 9.25 5.92893 9.25 8H10.75C10.75 6.75736 11.7574 5.75 13 5.75V4.25ZM12.25 8V8.00999H13.75V8H12.25ZM19.75 3.33333V12.6667H21.25V3.33333H19.75Z" fill="#585858"/>
</svg>
