<svg width="10" height="10" viewBox="0 0 10 10" fill="none" xmlns="http://www.w3.org/2000/svg">
<path d="M9.53032 1.53033C9.82321 1.23744 9.82321 0.762563 9.53032 0.46967C9.23743 0.176777 8.76255 0.176777 8.46966 0.46967L9.53032 1.53033ZM0.46967 8.46967C0.176777 8.76256 0.176777 9.23744 0.46967 9.53033C0.762564 9.82322 1.23744 9.82322 1.53033 9.53033L0.46967 8.46967ZM1.53034 0.46967C1.23745 0.176777 0.762572 0.176777 0.469678 0.46967C0.176785 0.762563 0.176785 1.23744 0.469678 1.53033L1.53034 0.46967ZM8.46967 9.53033C8.76256 9.82322 9.23744 9.82322 9.53033 9.53033C9.82322 9.23744 9.82322 8.76256 9.53033 8.46967L8.46967 9.53033ZM8.46966 0.46967L0.46967 8.46967L1.53033 9.53033L9.53032 1.53033L8.46966 0.46967ZM0.469678 1.53033L8.46967 9.53033L9.53033 8.46967L1.53034 0.46967L0.469678 1.53033Z" fill="white"/>
</svg>
