<svg width="20" height="20" viewBox="0 0 20 20" fill="none" xmlns="http://www.w3.org/2000/svg">
<path d="M13.5355 6.46448L14.2631 6.64638C14.327 6.3908 14.2521 6.12043 14.0659 5.93415C13.8796 5.74786 13.6092 5.67298 13.3536 5.73687L13.5355 6.46448ZM7.87868 7.87869L7.69677 7.15108C7.42806 7.21826 7.21825 7.42808 7.15107 7.69679L7.87868 7.87869ZM6.46446 13.5355L5.73686 13.3536C5.67296 13.6092 5.74785 13.8796 5.93413 14.0659C6.12042 14.2522 6.39078 14.327 6.64636 14.2632L6.46446 13.5355ZM12.1213 12.1213L12.3032 12.8489C12.5719 12.7818 12.7817 12.5719 12.8489 12.3032L12.1213 12.1213ZM13.3536 5.73687L7.69677 7.15108L8.06058 8.6063L13.7174 7.19208L13.3536 5.73687ZM7.15107 7.69679L5.73686 13.3536L7.19207 13.7174L8.60628 8.06059L7.15107 7.69679ZM12.8079 6.28258L11.3937 11.9394L12.8489 12.3032L14.2631 6.64638L12.8079 6.28258ZM11.9394 11.3937L6.28256 12.8079L6.64636 14.2632L12.3032 12.8489L11.9394 11.3937ZM18.25 10C18.25 14.5563 14.5563 18.25 10 18.25V19.75C15.3848 19.75 19.75 15.3848 19.75 10H18.25ZM10 18.25C5.44365 18.25 1.75 14.5563 1.75 10H0.25C0.25 15.3848 4.61522 19.75 10 19.75V18.25ZM1.75 10C1.75 5.44365 5.44365 1.75 10 1.75V0.25C4.61522 0.25 0.25 4.61522 0.25 10H1.75ZM10 1.75C14.5563 1.75 18.25 5.44365 18.25 10H19.75C19.75 4.61522 15.3848 0.25 10 0.25V1.75Z" fill="#585858"/>
</svg>
