<svg width="18" height="19" viewBox="0 0 18 19" fill="none" xmlns="http://www.w3.org/2000/svg">
<path d="M7.75 8C7.75 7.58579 7.41421 7.25 7 7.25C6.58579 7.25 6.25 7.58579 6.25 8H7.75ZM6.25 14C6.25 14.4142 6.58579 14.75 7 14.75C7.41421 14.75 7.75 14.4142 7.75 14H6.25ZM11.75 8C11.75 7.58579 11.4142 7.25 11 7.25C10.5858 7.25 10.25 7.58579 10.25 8H11.75ZM10.25 14C10.25 14.4142 10.5858 14.75 11 14.75C11.4142 14.75 11.75 14.4142 11.75 14H10.25ZM15.75 4C15.75 3.58579 15.4142 3.25 15 3.25C14.5858 3.25 14.25 3.58579 14.25 4H15.75ZM3.75 4C3.75 3.58579 3.41421 3.25 3 3.25C2.58579 3.25 2.25 3.58579 2.25 4H3.75ZM1 3.25C0.585786 3.25 0.25 3.58579 0.25 4C0.25 4.41421 0.585786 4.75 1 4.75V3.25ZM17 4.75C17.4142 4.75 17.75 4.41421 17.75 4C17.75 3.58579 17.4142 3.25 17 3.25V4.75ZM11.25 4C11.25 4.41421 11.5858 4.75 12 4.75C12.4142 4.75 12.75 4.41421 12.75 4H11.25ZM5.25 4C5.25 4.41421 5.58579 4.75 6 4.75C6.41421 4.75 6.75 4.41421 6.75 4H5.25ZM6.25 8V14H7.75V8H6.25ZM10.25 8V14H11.75V8H10.25ZM14.25 4V16H15.75V4H14.25ZM13 17.25H5V18.75H13V17.25ZM3.75 16V4H2.25V16H3.75ZM5 17.25C4.30964 17.25 3.75 16.6904 3.75 16H2.25C2.25 17.5188 3.48122 18.75 5 18.75V17.25ZM14.25 16C14.25 16.6904 13.6904 17.25 13 17.25V18.75C14.5188 18.75 15.75 17.5188 15.75 16H14.25ZM1 4.75H17V3.25H1V4.75ZM12.75 4V3H11.25V4H12.75ZM10 0.25H8V1.75H10V0.25ZM5.25 3V4H6.75V3H5.25ZM8 0.25C6.48122 0.25 5.25 1.48122 5.25 3H6.75C6.75 2.30964 7.30964 1.75 8 1.75V0.25ZM12.75 3C12.75 1.48122 11.5188 0.25 10 0.25V1.75C10.6904 1.75 11.25 2.30964 11.25 3H12.75Z" fill="#C0C0C0"/>
</svg>
