<svg width="40" height="41" viewBox="0 0 40 41" fill="none" xmlns="http://www.w3.org/2000/svg">
<path d="M34 20.5C34 28.232 27.732 34.5 20 34.5V36.5C28.8366 36.5 36 29.3366 36 20.5H34ZM20 34.5C12.268 34.5 6 28.232 6 20.5H4C4 29.3366 11.1634 36.5 20 36.5V34.5ZM6 20.5C6 12.768 12.268 6.5 20 6.5V4.5C11.1634 4.5 4 11.6634 4 20.5H6ZM20 6.5C27.732 6.5 34 12.768 34 20.5H36C36 11.6634 28.8366 4.5 20 4.5V6.5ZM20 5.5C19.4 6.3 19.3996 6.29974 19.3993 6.29949C19.3993 6.29944 19.399 6.29921 19.3988 6.2991C19.3985 6.29887 19.3983 6.29872 19.3982 6.29865C19.398 6.2985 19.3982 6.29865 19.3988 6.29909C19.4 6.29999 19.4027 6.30208 19.407 6.30537C19.4155 6.31195 19.43 6.32332 19.4502 6.33946C19.4905 6.37176 19.5534 6.42316 19.6357 6.49363C19.8002 6.63464 20.0416 6.85168 20.3346 7.14461C20.9209 7.73097 21.7102 8.61809 22.5013 9.8047C24.0809 12.1741 25.6667 15.7343 25.6667 20.5H27.6667C27.6667 15.2657 25.9191 11.3259 24.1654 8.6953C23.2898 7.38191 22.4124 6.39403 21.7488 5.73039C21.4167 5.39832 21.1373 5.14661 20.9372 4.97512C20.8372 4.88934 20.7568 4.82355 20.6996 4.77773C20.6709 4.75481 20.648 4.73688 20.6313 4.72392C20.6229 4.71745 20.6161 4.71222 20.6109 4.70823C20.6083 4.70624 20.606 4.70455 20.6042 4.70318C20.6033 4.7025 20.6025 4.70189 20.6018 4.70136C20.6015 4.70109 20.601 4.70075 20.6008 4.70062C20.6004 4.7003 20.6 4.7 20 5.5ZM25.6667 20.5C25.6667 25.2657 24.0809 28.8259 22.5013 31.1953C21.7102 32.3819 20.9209 33.269 20.3346 33.8554C20.0416 34.1483 19.8002 34.3654 19.6357 34.5064C19.5534 34.5768 19.4905 34.6282 19.4502 34.6605C19.43 34.6767 19.4155 34.688 19.407 34.6946C19.4027 34.6979 19.4 34.7 19.3988 34.7009C19.3982 34.7014 19.398 34.7015 19.3982 34.7014C19.3983 34.7013 19.3985 34.7011 19.3988 34.7009C19.399 34.7008 19.3993 34.7006 19.3993 34.7005C19.3996 34.7003 19.4 34.7 20 35.5C20.6 36.3 20.6004 36.2997 20.6008 36.2994C20.601 36.2992 20.6015 36.2989 20.6018 36.2986C20.6025 36.2981 20.6033 36.2975 20.6042 36.2968C20.606 36.2954 20.6083 36.2938 20.6109 36.2918C20.6161 36.2878 20.6229 36.2826 20.6313 36.2761C20.648 36.2631 20.6709 36.2452 20.6996 36.2223C20.7568 36.1764 20.8372 36.1107 20.9372 36.0249C21.1373 35.8534 21.4167 35.6017 21.7488 35.2696C22.4124 34.606 23.2898 33.6181 24.1654 32.3047C25.9191 29.6741 27.6667 25.7343 27.6667 20.5H25.6667ZM20 35.5C20.6 34.7 20.6003 34.7003 20.6007 34.7005C20.6007 34.7006 20.601 34.7008 20.6012 34.7009C20.6015 34.7011 20.6017 34.7013 20.6018 34.7014C20.602 34.7015 20.6018 34.7014 20.6012 34.7009C20.6 34.7 20.5973 34.6979 20.593 34.6946C20.5845 34.688 20.57 34.6767 20.5498 34.6605C20.5095 34.6282 20.4466 34.5768 20.3643 34.5064C20.1998 34.3654 19.9584 34.1483 19.6654 33.8554C19.0791 33.269 18.2898 32.3819 17.4987 31.1953C15.9191 28.8259 14.3333 25.2657 14.3333 20.5H12.3333C12.3333 25.7343 14.0809 29.6741 15.8346 32.3047C16.7102 33.6181 17.5876 34.606 18.2512 35.2696C18.5833 35.6017 18.8627 35.8534 19.0627 36.0249C19.1628 36.1107 19.2432 36.1764 19.3004 36.2223C19.3291 36.2452 19.352 36.2631 19.3687 36.2761C19.3771 36.2826 19.3839 36.2878 19.3891 36.2918C19.3917 36.2938 19.394 36.2954 19.3958 36.2968C19.3967 36.2975 19.3975 36.2981 19.3982 36.2986C19.3985 36.2989 19.399 36.2992 19.3992 36.2994C19.3996 36.2997 19.4 36.3 20 35.5ZM14.3333 20.5C14.3333 15.7343 15.9191 12.1741 17.4987 9.8047C18.2898 8.61809 19.0791 7.73097 19.6654 7.14461C19.9584 6.85168 20.1998 6.63464 20.3643 6.49363C20.4466 6.42316 20.5095 6.37176 20.5498 6.33946C20.57 6.32332 20.5845 6.31195 20.593 6.30537C20.5973 6.30208 20.6 6.29999 20.6012 6.29909C20.6018 6.29865 20.602 6.2985 20.6018 6.29865C20.6017 6.29872 20.6015 6.29887 20.6012 6.2991C20.601 6.29921 20.6007 6.29944 20.6007 6.29949C20.6003 6.29974 20.6 6.3 20 5.5C19.4 4.7 19.3996 4.7003 19.3992 4.70062C19.399 4.70075 19.3985 4.70109 19.3982 4.70136C19.3975 4.70189 19.3967 4.7025 19.3958 4.70318C19.394 4.70455 19.3917 4.70624 19.3891 4.70823C19.3839 4.71222 19.3771 4.71745 19.3687 4.72392C19.352 4.73688 19.3291 4.75481 19.3004 4.77772C19.2432 4.82355 19.1628 4.88934 19.0627 4.97512C18.8627 5.14661 18.5833 5.39832 18.2512 5.73039C17.5876 6.39403 16.7102 7.38191 15.8346 8.6953C14.0809 11.3259 12.3333 15.2657 12.3333 20.5H14.3333ZM35 19.5H5V21.5H35V19.5Z" fill="#D9AC94"/>
</svg>
