<svg width="40" height="41" viewBox="0 0 40 41" fill="none" xmlns="http://www.w3.org/2000/svg">
<path d="M20 33.8346L19.2802 34.5288C19.4686 34.7242 19.7285 34.8346 20 34.8346C20.2715 34.8346 20.5314 34.7242 20.7198 34.5288L20 33.8346ZM7.219 20.5803L6.49915 21.2744H6.49915L7.219 20.5803ZM32.781 20.5803L32.0612 19.8861L32.781 20.5803ZM17.9333 9.46916L17.2134 10.1633L17.2134 10.1633L17.9333 9.46916ZM20 11.6124L19.2802 12.3065C19.4686 12.502 19.7285 12.6124 20 12.6124C20.2715 12.6124 20.5314 12.502 20.7198 12.3065L20 11.6124ZM22.0667 9.46915L21.3469 8.77502V8.77502L22.0667 9.46915ZM20.7198 33.1405L7.93884 19.8861L6.49915 21.2744L19.2802 34.5288L20.7198 33.1405ZM32.0612 19.8861L19.2802 33.1405L20.7198 34.5288L33.5008 21.2744L32.0612 19.8861ZM17.2134 10.1633L19.2802 12.3065L20.7198 10.9183L18.6531 8.77502L17.2134 10.1633ZM20.7198 12.3065L22.7866 10.1633L21.3469 8.77502L19.2802 10.9183L20.7198 12.3065ZM27.4239 6.16797C25.1373 6.16797 22.9522 7.11026 21.3469 8.77502L22.7866 10.1633C24.0229 8.8812 25.6917 8.16797 27.4239 8.16797V6.16797ZM34 15.0247C34 16.8547 33.2986 18.6028 32.0612 19.8861L33.5008 21.2744C35.1049 19.6109 36 17.3622 36 15.0247H34ZM36 15.0247C36 10.1679 32.1943 6.16797 27.4239 6.16797V8.16797C31.0218 8.16797 34 11.2032 34 15.0247H36ZM12.5761 8.16797C14.3083 8.16797 15.9771 8.8812 17.2134 10.1633L18.6531 8.77502C17.0478 7.11026 14.8627 6.16797 12.5761 6.16797V8.16797ZM6 15.0247C6 11.2032 8.97821 8.16797 12.5761 8.16797V6.16797C7.8057 6.16797 4 10.1679 4 15.0247H6ZM7.93884 19.8861C6.70135 18.6028 6 16.8547 6 15.0247H4C4 17.3622 4.89504 19.6109 6.49915 21.2744L7.93884 19.8861Z" fill="#D9AC94"/>
</svg>
