<svg width="21" height="20" viewBox="0 0 21 20" fill="none" xmlns="http://www.w3.org/2000/svg">
<path d="M3.5 1L4.24246 0.893934C4.18968 0.524447 3.87324 0.25 3.5 0.25V1ZM1 0.25C0.585786 0.25 0.25 0.585786 0.25 1C0.25 1.41421 0.585786 1.75 1 1.75V0.25ZM5.5 15L4.75754 15.1061C4.81032 15.4756 5.12676 15.75 5.5 15.75V15ZM20 3L20.7115 3.23717C20.7877 3.00846 20.7494 2.75704 20.6084 2.56147C20.4675 2.36589 20.2411 2.25 20 2.25V3ZM17 12V12.75C17.3228 12.75 17.6094 12.5434 17.7115 12.2372L17 12ZM5.07142 11.25C4.65721 11.25 4.32142 11.5858 4.32142 12C4.32142 12.4142 4.65721 12.75 5.07142 12.75V11.25ZM3.78571 2.25C3.37149 2.25 3.03571 2.58579 3.03571 3C3.03571 3.41421 3.37149 3.75 3.78571 3.75V2.25ZM3.5 0.25H1V1.75H3.5V0.25ZM5.5 15.75H16V14.25H5.5V15.75ZM6.24246 14.8939L4.24246 0.893934L2.75754 1.10607L4.75754 15.1061L6.24246 14.8939ZM19.2885 2.76283L16.2885 11.7628L17.7115 12.2372L20.7115 3.23717L19.2885 2.76283ZM17 11.25H5.07142V12.75H17V11.25ZM3.78571 3.75H20V2.25H3.78571V3.75ZM9.25 17C9.25 17.6904 8.69036 18.25 8 18.25V19.75C9.51878 19.75 10.75 18.5188 10.75 17H9.25ZM8 18.25C7.30964 18.25 6.75 17.6904 6.75 17H5.25C5.25 18.5188 6.48122 19.75 8 19.75V18.25ZM6.75 17C6.75 16.3096 7.30964 15.75 8 15.75V14.25C6.48122 14.25 5.25 15.4812 5.25 17H6.75ZM8 15.75C8.69036 15.75 9.25 16.3096 9.25 17H10.75C10.75 15.4812 9.51878 14.25 8 14.25V15.75ZM17.25 17C17.25 17.6904 16.6904 18.25 16 18.25V19.75C17.5188 19.75 18.75 18.5188 18.75 17H17.25ZM16 18.25C15.3096 18.25 14.75 17.6904 14.75 17H13.25C13.25 18.5188 14.4812 19.75 16 19.75V18.25ZM14.75 17C14.75 16.3096 15.3096 15.75 16 15.75V14.25C14.4812 14.25 13.25 15.4812 13.25 17H14.75ZM16 15.75C16.6904 15.75 17.25 16.3096 17.25 17H18.75C18.75 15.4812 17.5188 14.25 16 14.25V15.75Z" fill="#585858"/>
</svg>
