<svg width="18" height="20" viewBox="0 0 18 20" fill="none" xmlns="http://www.w3.org/2000/svg">
<path d="M17.3875 13.5303C17.6804 13.2374 17.6804 12.7626 17.3875 12.4697C17.0946 12.1768 16.6197 12.1768 16.3268 12.4697L17.3875 13.5303ZM10.6573 19.1999L10.127 19.7302C10.4199 20.0231 10.8947 20.0231 11.1876 19.7302L10.6573 19.1999ZM8.53037 16.0124C8.23747 15.7196 7.7626 15.7196 7.46971 16.0125C7.17682 16.3054 7.17684 16.7802 7.46974 17.0731L8.53037 16.0124ZM6 9.75C6.41421 9.75 6.75 9.41421 6.75 9C6.75 8.58579 6.41421 8.25 6 8.25V9.75ZM1 8.25C0.585786 8.25 0.25 8.58579 0.25 9C0.25 9.41421 0.585786 9.75 1 9.75V8.25ZM16.25 7C16.25 7.41421 16.5858 7.75 17 7.75C17.4142 7.75 17.75 7.41421 17.75 7H16.25ZM5 19.75C5.41421 19.75 5.75 19.4142 5.75 19C5.75 18.5858 5.41421 18.25 5 18.25V19.75ZM12.75 1C12.75 0.585786 12.4142 0.25 12 0.25C11.5858 0.25 11.25 0.585786 11.25 1H12.75ZM11.25 5C11.25 5.41421 11.5858 5.75 12 5.75C12.4142 5.75 12.75 5.41421 12.75 5H11.25ZM6.75 1C6.75 0.585786 6.41421 0.25 6 0.25C5.58579 0.25 5.25 0.585786 5.25 1H6.75ZM5.25 5C5.25 5.41421 5.58579 5.75 6 5.75C6.41421 5.75 6.75 5.41421 6.75 5H5.25ZM16.3268 12.4697L10.127 18.6696L11.1876 19.7302L17.3875 13.5303L16.3268 12.4697ZM7.46974 17.0731L10.127 19.7302L11.1876 18.6695L8.53037 16.0124L7.46974 17.0731ZM6 8.25H1V9.75H6V8.25ZM1.75 17V5H0.25V17H1.75ZM3 18.25C2.30964 18.25 1.75 17.6904 1.75 17H0.25C0.25 18.5188 1.48122 19.75 3 19.75V18.25ZM3 2.25C1.48122 2.25 0.25 3.48122 0.25 5H1.75C1.75 4.30964 2.30964 3.75 3 3.75V2.25ZM17.75 7V5H16.25V7H17.75ZM15 3.75C15.6904 3.75 16.25 4.30964 16.25 5H17.75C17.75 3.48122 16.5188 2.25 15 2.25V3.75ZM15 2.25H3V3.75H15V2.25ZM3 19.75H5V18.25H3V19.75ZM11.25 1V5H12.75V1H11.25ZM5.25 1V5H6.75V1H5.25Z" fill="white"/>
</svg>
