<svg width="40" height="41" viewBox="0 0 40 41" fill="none" xmlns="http://www.w3.org/2000/svg">
<path d="M13.3327 33.8318L13.3327 34.8318H13.3327L13.3327 33.8318ZM28.9333 33.8318V32.8318H28.9333L28.9333 33.8318ZM32.2019 31.1521L31.2214 30.956H31.2214L32.2019 31.1521ZM34.2019 21.1521L35.1825 21.3483V21.3483L34.2019 21.1521ZM23.3327 17.1651L22.5006 16.6104C22.2961 16.9172 22.277 17.3118 22.451 17.6369C22.625 17.9621 22.9639 18.1651 23.3327 18.1651V17.1651ZM27.3756 11.1007L28.2077 11.6554V11.6554L27.3756 11.1007ZM25.4106 6.01789L25.168 6.98803V6.98803L25.4106 6.01789ZM25.3313 5.99807L25.5738 5.02793V5.02793L25.3313 5.99807ZM6.66602 17.1651L6.66602 16.1651C6.4008 16.1651 6.14645 16.2704 5.95891 16.458C5.77137 16.6455 5.66602 16.8999 5.66602 17.1651H6.66602ZM6.66602 33.8318H5.66602C5.66602 34.384 6.11373 34.8318 6.66601 34.8318L6.66602 33.8318ZM21.992 7.06258L21.2327 6.41179L21.2327 6.41179L21.992 7.06258ZM12.3327 17.1651V33.8318H14.3327V17.1651H12.3327ZM13.3327 34.8318L28.9333 34.8318L28.9333 32.8318L13.3327 32.8318L13.3327 34.8318ZM33.1825 31.3483L35.1825 21.3483L33.2214 20.956L31.2214 30.956L33.1825 31.3483ZM30.9333 16.1651H23.3327V18.1651H30.9333V16.1651ZM24.1647 17.7198L28.2077 11.6554L26.5436 10.546L22.5006 16.6104L24.1647 17.7198ZM25.6531 5.04775L25.5738 5.02793L25.0887 6.96822L25.168 6.98803L25.6531 5.04775ZM13.3327 16.1651L6.66602 16.1651L6.66601 18.1651L13.3327 18.1651L13.3327 16.1651ZM5.66602 17.1651V33.8318H7.66602V17.1651H5.66602ZM6.66601 34.8318L13.3327 34.8318L13.3327 32.8318L6.66602 32.8318L6.66601 34.8318ZM25.5738 5.02793C23.9815 4.62985 22.3009 5.16558 21.2327 6.41179L22.7512 7.71337C23.3264 7.04234 24.2313 6.75386 25.0887 6.96822L25.5738 5.02793ZM28.2077 11.6554C29.8699 9.16205 28.5603 5.77454 25.6531 5.04775L25.168 6.98803C26.7334 7.37938 27.4386 9.20343 26.5436 10.546L28.2077 11.6554ZM35.1825 21.3483C35.7188 18.6668 33.6679 16.1651 30.9333 16.1651V18.1651C32.4058 18.1651 33.5101 19.5122 33.2214 20.956L35.1825 21.3483ZM28.9333 34.8318C30.999 34.8318 32.7774 33.3738 33.1825 31.3483L31.2214 30.956C31.0032 32.0467 30.0456 32.8318 28.9333 32.8318V34.8318ZM21.2327 6.41179L12.5734 16.5143L14.0919 17.8159L22.7512 7.71337L21.2327 6.41179Z" fill="#D9AC94"/>
</svg>
