<svg width="40" height="40" viewBox="0 0 40 40" fill="none" xmlns="http://www.w3.org/2000/svg">
<rect width="40" height="40" rx="20" fill="#629C42"/>
<path d="M5.65192 25V15.13H6.56192L12.8899 23.53H12.5679V15.13H13.6459V25H12.7499L6.42192 16.6H6.72992V25H5.65192ZM19.1069 25.126C18.0056 25.126 17.1376 24.8087 16.5029 24.174C15.8682 23.53 15.5509 22.6387 15.5509 21.5C15.5509 20.7627 15.6909 20.1233 15.9709 19.582C16.2509 19.0313 16.6429 18.6067 17.1469 18.308C17.6509 18 18.2296 17.846 18.8829 17.846C19.5269 17.846 20.0682 17.9813 20.5069 18.252C20.9456 18.5227 21.2816 18.91 21.5149 19.414C21.7482 19.9087 21.8649 20.4967 21.8649 21.178V21.598H16.4189V20.884H21.1229L20.8849 21.066C20.8849 20.3193 20.7169 19.736 20.3809 19.316C20.0449 18.896 19.5456 18.686 18.8829 18.686C18.1829 18.686 17.6369 18.9333 17.2449 19.428C16.8529 19.9133 16.6569 20.5713 16.6569 21.402V21.528C16.6569 22.4053 16.8716 23.0727 17.3009 23.53C17.7396 23.978 18.3509 24.202 19.1349 24.202C19.5549 24.202 19.9469 24.1413 20.3109 24.02C20.6842 23.8893 21.0389 23.6793 21.3749 23.39L21.7669 24.188C21.4589 24.4867 21.0669 24.72 20.5909 24.888C20.1242 25.0467 19.6296 25.126 19.1069 25.126ZM25.3941 25L22.7901 17.972H23.9941L26.1641 24.16H25.8001L28.0401 17.972H29.0201L31.2181 24.16H30.8681L33.0521 17.972H34.2001L31.5821 25H30.4901L28.2221 18.714H28.7821L26.5001 25H25.3941Z" fill="white"/>
</svg>
