<svg width="40" height="40" viewBox="0 0 40 40" fill="none" xmlns="http://www.w3.org/2000/svg">
<path d="M20 0.5C30.7696 0.5 39.5 9.23045 39.5 20C39.5 30.7696 30.7696 39.5 20 39.5C9.23045 39.5 0.5 30.7696 0.5 20C0.5 9.23045 9.23045 0.5 20 0.5Z" stroke="#629C42"/>
<path d="M10 19.6C10 15.0733 10 12.8133 11.4 11.4C12.82 10 15.08 10 19.6 10H20.4C24.9267 10 27.1867 10 28.6 11.4C30 12.82 30 15.08 30 19.6V20.4C30 24.9267 30 27.1867 28.6 28.6C27.18 30 24.92 30 20.4 30H19.6C15.0733 30 12.8133 30 11.4 28.6C10 27.18 10 24.92 10 20.4V19.6Z" fill="#629C42"/>
<path d="M20.6397 24.4048C16.0797 24.4048 13.4797 21.2848 13.373 16.0848H15.6664C15.7397 19.8981 17.4197 21.5115 18.753 21.8448V16.0848H20.9064V19.3715C22.2197 19.2315 23.6064 17.7315 24.073 16.0781H26.2197C26.0447 16.934 25.695 17.7445 25.1926 18.4591C24.6902 19.1738 24.0458 19.7771 23.2997 20.2315C24.1323 20.6459 24.8676 21.2321 25.4572 21.9515C26.0467 22.6708 26.477 23.507 26.7197 24.4048H24.353C23.8464 22.8248 22.5797 21.5981 20.9064 21.4315V24.4048H20.6464H20.6397Z" fill="white"/>
</svg>
